<?xml version="1.0" encoding="iso-8859-1"?>
<!-- Uploaded to: SVG Repo, www.svgrepo.com, Generator: SVG Repo Mixer Tools -->
<!DOCTYPE svg PUBLIC "-//W3C//DTD SVG 1.1//EN" "http://www.w3.org/Graphics/SVG/1.1/DTD/svg11.dtd">
<svg fill="#000000" height="800px" width="800px" version="1.1" id="Capa_1" xmlns="http://www.w3.org/2000/svg" xmlns:xlink="http://www.w3.org/1999/xlink" 
	 viewBox="0 0 304.755 304.755" xml:space="preserve">
<path d="M137.549,119.123c-2.628,4.069-4.944,8.409-6.886,12.903c-13.935,32.282-7.306,69.635,16.887,95.158
	c1.505,1.589,3.596,2.491,5.784,2.497c0.084,0,0.163,0,0.247,0c33.128,0,63.173-18.539,78.113-47.737
	c0.052-0.097,0.102-0.194,0.149-0.293c0.82-1.617,1.594-3.269,2.319-4.949c1.935-4.479,3.506-9.143,4.669-13.858
	c0.678-2.747-0.146-5.647-2.167-7.629c-12.158-11.92-26.417-21.458-42.379-28.35c-15.97-6.893-32.692-10.727-49.703-11.396
	C141.769,115.364,139.084,116.748,137.549,119.123z M148.628,131.732c13.428,1.051,26.631,4.348,39.316,9.822
	c12.68,5.475,24.135,12.821,34.112,21.872c-0.691,2.191-1.489,4.355-2.386,6.473c-13.561-1.014-26.896-4.32-39.714-9.854
	c-3.409-1.47-6.8-3.114-10.079-4.889c-3.885-2.101-8.741-0.656-10.843,3.229c-2.103,3.886-0.658,8.74,3.228,10.844
	c3.695,1.999,7.517,3.853,11.356,5.508c12.079,5.215,24.582,8.677,37.314,10.343c-12.722,16.925-32.46,27.555-54.093,28.528
	c-17.872-20.757-22.422-49.907-11.489-75.238C146.332,136.101,147.429,133.881,148.628,131.732z M205.778,42.858
	c0-4.418,3.582-8,8-8h1.33c4.418,0,8,3.582,8,8s-3.582,8-8,8h-1.33C209.359,50.858,205.778,47.276,205.778,42.858z M234.386,121.982
	c15.775,0,28.608-12.833,28.608-28.607c0-15.773-12.833-28.606-28.608-28.606c-15.774,0-28.608,12.833-28.608,28.606
	C205.778,109.149,218.611,121.982,234.386,121.982z M234.386,80.768c6.952,0,12.608,5.655,12.608,12.606
	c0,6.952-5.656,12.607-12.608,12.607s-12.608-5.655-12.608-12.607C221.778,86.424,227.433,80.768,234.386,80.768z M256.779,42.863
	c0-4.418,3.582-8,8-8h1.33c4.418,0,8,3.582,8,8s-3.582,8-8,8h-1.33C260.361,50.863,256.779,47.281,256.779,42.863z M37.882,72.765
	c0-4.418,3.582-8,8-8h1.328c4.418,0,8,3.582,8,8s-3.582,8-8,8h-1.328C41.463,80.765,37.882,77.183,37.882,72.765z M105.845,64.987
	c11.523-2.68,25.013,4.138,36.687,11.16c7.674,4.616,16.067,9.666,23.709,9.665c3.23,0,6.327-0.902,9.177-3.12
	c7.188-5.596,10.232-15.18,8.573-26.986c-2.609-18.573-17.704-43.558-37.54-51.533C122.578-5.424,94.75,1.94,78.784,22.079
	C65.81,38.44,67.82,49.348,71.79,55.619C77.586,64.773,90.951,68.451,105.845,64.987z M91.321,32.02
	C91.321,32.02,91.321,32.019,91.321,32.02c11.597-14.629,31.814-19.977,49.163-13.002c13.864,5.574,25.706,24.982,27.664,38.914
	c0.374,2.66,0.876,9.007-2.233,11.86c-2.973-0.04-11.445-5.137-15.135-7.356c-11.875-7.143-25.53-14.053-39.523-14.053
	c-3.001,0-6.018,0.318-9.035,1.02c-8.307,1.931-15.246,0.287-16.913-2.344C84.097,45.147,84.945,40.06,91.321,32.02z
	 M301.627,296.755c0,4.418-3.582,8-8,8H11.128c-4.418,0-8-3.582-8-8s3.582-8,8-8h282.499
	C298.045,288.755,301.627,292.337,301.627,296.755z M4.936,120.474V73.995c0-4.418,3.582-8,8-8s8,3.582,8,8v46.479
	c0,72.477,58.964,131.44,131.441,131.44c72.476,0,131.439-58.964,131.439-131.44V73.995c0-4.418,3.582-8,8-8s8,3.582,8,8v46.479
	c0,81.299-66.141,147.44-147.439,147.44C71.078,267.915,4.936,201.773,4.936,120.474z M107.226,202.357c4.418,0,8,3.582,8,8
	s-3.582,8-8,8h-1.33c-4.418,0-8-3.582-8-8s3.582-8,8-8H107.226z M65.298,178.136c8.395,6.313,15.191,8.451,20.547,8.451
	c4.271,0,7.625-1.359,10.141-3.044c8.247-5.522,11.331-17.739,7.854-31.124c-2.518-9.698,3.066-21.45,8.86-31.667
	c5.666-9.99,12.089-21.314,4.9-30.076c-5.298-6.458-14.093-9.038-24.764-7.258c-16.488,2.747-38.413,16.79-45.083,34.687
	C39.726,139.648,46.941,164.335,65.298,178.136z M62.745,123.692c4.031-10.813,19.321-22.258,32.721-24.491
	c0.894-0.149,2.3-0.332,3.8-0.332c1.969,0,4.101,0.315,5.45,1.44c-0.393,2.781-4.229,9.546-5.934,12.551
	c-7.375,13.005-14.382,28.353-10.429,43.58c1.846,7.107,0.42,12.676-1.27,13.809c-1.203,0.802-5.435,0.164-12.169-4.899c0,0,0,0,0,0
	C62.179,155.773,57.175,138.643,62.745,123.692z"/>
</svg>