<svg xmlns="http://www.w3.org/2000/svg" width="500px" height="501px" viewBox="0 0 500 501" transform="rotate(0) scale(1, 1)">
<g>
<path d="M 451.81 431.25 C477.93,468.51 499.47,499.00 499.66,499.00 C499.85,499.00 500.00,386.73 500.00,249.50 L 500.00 501.00 L 351.89 501.00 L 326.79 465.25 C241.30,343.46 226.05,321.72 221.23,314.75 C218.28,310.49 215.53,307.00 215.11,307.00 C214.32,307.00 211.64,310.03 137.49,394.50 C112.88,422.55 90.16,448.42 87.02,452.00 C76.86,463.54 56.81,486.30 50.23,493.75 L 43.82 501.00 L 0.00 501.00 L 0.00 500.45 L 2.39 497.98 C3.70,496.61 19.79,478.39 38.14,457.49 C112.63,372.60 176.60,299.78 187.82,287.10 C192.08,282.29 194.92,278.24 194.61,277.43 C194.06,275.99 193.30,274.89 160.19,227.75 C149.09,211.94 130.92,186.06 119.83,170.25 C108.73,154.44 92.38,131.15 83.48,118.50 C74.59,105.85 52.34,74.12 34.04,48.00 C15.74,21.88 0.60,0.31 0.39,0.08 L 0.39 0.08 C0.17,0.08 0.00,112.48 0.00,250.06 L 0.00 0.00 L 295.02 0.00 C215.26,0.00 150.00,0.27 150.00,0.60 C150.00,1.14 159.98,15.46 205.02,79.50 C233.28,119.69 265.09,165.07 271.48,174.33 C276.95,182.26 278.50,183.90 279.47,182.83 C280.13,182.10 286.96,174.30 294.63,165.50 C302.31,156.70 328.38,127.00 352.57,99.50 C376.75,72.00 406.33,38.36 418.29,24.75 L 440.03 0.00 L 484.10 0.00 L 469.83 16.25 C416.23,77.32 327.03,178.84 311.73,196.21 L 297.90 211.92 L 321.28 245.21 C349.70,285.66 388.80,341.38 451.81,431.25 ZM 371.32 467.75 C373.35,470.00 373.40,470.00 406.17,470.00 C427.12,470.00 439.00,469.64 439.00,469.01 C439.00,468.47 378.20,382.86 303.88,278.76 C229.56,174.67 159.70,76.80 148.63,61.28 L 128.50 33.06 L 94.69 33.03 C67.90,33.01 61.04,33.26 61.65,34.25 C62.67,35.92 90.68,75.25 98.50,86.00 C101.91,90.68 164.23,177.98 236.99,280.00 C309.76,382.02 370.21,466.51 371.32,467.75 Z" fill=" #c88342"/>
<path d="M 0.39 0.08 L 0.39 0.08 C0.50,0.20 4.71,6.19 11.33,15.61 C5.94,8.02 2.36,3.06 1.86,2.53 C0.80,1.41 0.35,3.09 0.15,53.00 C0.21,19.87 0.30,0.08 0.39,0.08 ZM 85.66 121.59 C94.86,134.68 109.58,155.65 119.83,170.25 C130.92,186.06 149.09,211.94 160.19,227.75 C169.48,240.98 176.23,250.59 181.14,257.59 C176.26,250.63 169.57,241.10 160.37,228.00 C149.36,212.32 129.77,184.43 116.84,166.00 C107.19,152.26 94.89,134.74 85.66,121.59 Z" fill=" #c88342"/>
<path d="M 50.23 493.75 C56.81,486.30 76.86,463.54 87.02,452.00 C90.16,448.42 112.88,422.55 137.49,394.50 C211.64,310.03 214.32,307.00 215.11,307.00 C215.53,307.00 218.28,310.49 221.23,314.75 C226.05,321.72 241.30,343.46 326.79,465.25 L 351.89 501.00 L 197.86 501.00 L 43.82 501.00 L 50.23 493.75 ZM 0.00 250.51 C0.00,6.92 0.05,0.61 1.86,2.53 C2.88,3.61 16.76,23.17 32.71,46.00 C48.65,68.82 68.82,97.62 77.51,110.00 C86.21,122.38 103.90,147.57 116.84,166.00 C129.77,184.43 149.36,212.32 160.37,228.00 C193.25,274.83 194.06,275.99 194.61,277.43 C194.92,278.24 192.08,282.29 187.82,287.10 C176.60,299.78 112.63,372.60 38.14,457.49 C19.79,478.39 3.70,496.61 2.39,497.98 L 0.00 500.45 L 0.00 250.51 ZM 451.81 431.25 C388.80,341.38 349.70,285.66 321.28,245.21 L 297.90 211.92 L 311.73 196.21 C327.03,178.84 416.23,77.32 469.83,16.25 L 484.10 0.00 L 492.05 0.00 L 500.00 0.00 L 500.00 249.50 C500.00,386.73 499.85,499.00 499.66,499.00 C499.47,499.00 477.93,468.51 451.81,431.25 ZM 371.32 467.75 C370.21,466.51 309.76,382.02 236.99,280.00 C164.23,177.98 101.91,90.68 98.50,86.00 C90.68,75.25 62.67,35.92 61.65,34.25 C61.04,33.26 67.90,33.01 94.69,33.03 L 128.50 33.06 L 148.63 61.28 C159.70,76.80 229.56,174.67 303.88,278.76 C378.20,382.86 439.00,468.47 439.00,469.01 C439.00,469.64 427.12,470.00 406.17,470.00 C373.40,470.00 373.35,470.00 371.32,467.75 ZM 271.48 174.33 C265.09,165.07 233.28,119.69 205.02,79.50 C159.98,15.46 150.00,1.14 150.00,0.60 C150.00,0.27 215.26,0.00 295.02,0.00 L 440.03 0.00 L 418.29 24.75 C406.33,38.36 376.75,72.00 352.57,99.50 C328.38,127.00 302.31,156.70 294.63,165.50 C286.96,174.30 280.13,182.10 279.47,182.83 C278.50,183.90 276.95,182.26 271.48,174.33 Z" fill="#e6af69"/>
</g>
</svg>