<svg fill="#ffffff" height="800px" width="800px" version="1.1" id="Capa_1" xmlns="http://www.w3.org/2000/svg" xmlns:xlink="http://www.w3.org/1999/xlink" viewBox="0 0 489.056 489.056" xml:space="preserve" data-originalfillcolor="#000000" transform="rotate(0) scale(1, 1)">
<g id="XMLID_75_">
	<path id="XMLID_83_" d="M356.098,129.877c-73.311,0-132.959,59.636-132.959,132.946c0,73.323,59.648,132.973,132.959,132.973&#10;&#9;&#9;c73.311,0,132.958-59.649,132.958-132.973C489.056,189.513,429.409,129.877,356.098,129.877z M456.274,252.089&#10;&#9;&#9;c-32.963,18.433-52.076,20.996-66.223,16.612c16.172-7.42,33.635-22.966,52.37-57.575&#10;&#9;&#9;C449.794,223.37,454.697,237.22,456.274,252.089z M419.316,184.485c-10.244,36.307-21.955,51.603-35.065,58.501&#10;&#9;&#9;c6.208-16.693,7.543-40.05-3.676-77.789C394.937,168.813,408.124,175.433,419.316,184.485z M345.368,162.667&#10;&#9;&#9;c18.452,32.962,21.011,52.075,16.595,66.221c-7.42-16.174-22.944-33.638-57.575-52.375&#10;&#9;&#9;C316.633,169.157,330.494,164.237,345.368,162.667z M277.729,199.62c36.325,10.262,51.623,21.956,58.537,35.067&#10;&#9;&#9;c-16.692-6.179-40.051-7.529-77.808,3.71C262.057,224.015,268.69,210.827,277.729,199.62z M255.929,273.606&#10;&#9;&#9;c32.964-18.452,52.058-21.017,66.22-16.628c-16.177,7.417-33.608,22.979-52.355,57.605&#10;&#9;&#9;C262.432,302.338,257.518,288.475,255.929,273.606z M292.899,341.207c10.264-36.289,21.953-51.599,35.049-58.518&#10;&#9;&#9;c-6.178,16.693-7.525,40.052,3.71,77.791C317.278,356.879,304.091,350.264,292.899,341.207z M366.868,363.01&#10;&#9;&#9;c-18.457-32.959-21.016-52.059-16.626-66.223c7.444,16.193,22.976,33.637,57.587,52.358&#10;&#9;&#9;C395.602,356.517,381.737,361.422,366.868,363.01z M434.47,326.041c-36.309-10.264-51.599-21.942-58.503-35.052&#10;&#9;&#9;c16.673,6.178,40.032,7.528,77.77-3.693C450.125,301.677,443.509,314.848,434.47,326.041z"/>
	<path id="XMLID_76_" d="M105.335,158.849c-4.023-8.267-0.111-20.134,8.302-24.224c9.111-4.464,20.071-0.112,24.2,8.287&#10;&#9;&#9;c10.485,21.391,7.814,15.952,12.151,24.784c5.723,11.631,15.704,21.158,30.713,26.452c0.034,0,0.067,0.02,0.079,0.02&#10;&#9;&#9;c13.66,4.431,27.332,2.78,38.526-2.734c21.08-10.347,34.498-36.074,26.532-61.772c-2.701-8.743-16.535-36.418-22.934-46.01&#10;&#9;&#9;C186.171,27.431,109.216,12.937,55.193,48.964C3.137,82.818-14.246,150.343,12.298,204.43&#10;&#9;&#9;c4.116,8.395,95.646,195.203,110.937,226.403c12.672,25.76,44.106,36.12,69.317,23.719c25.685-12.591,36.31-43.619,23.721-69.302&#10;&#9;&#9;C191.845,335.344,143.074,235.866,105.335,158.849z M214.137,136.277c2.309,4.7,2.64,10.028,0.941,14.98&#10;&#9;&#9;c-1.696,4.968-5.235,8.958-9.931,11.268c-2.737,1.338-5.611,2.014-8.583,2.014c-2.186,0-4.26-0.441-6.259-1.1l15.267-44.592&#10;&#9;&#9;L214.137,136.277z M174.843,79.077l-13.932,40.693c-9.415-11.85-23.906-19.172-39.355-19.172c-0.344,0-0.691,0.108-1.041,0.122&#10;&#9;&#9;l13.174-38.522C148.877,64.258,162.894,70.199,174.843,79.077z M41.205,190.25c-10.503-21.42-12.023-45.691-4.276-68.356&#10;&#9;&#9;c7.767-22.65,23.833-40.912,45.252-51.413c1.667-0.817,3.379-1.432,5.063-2.137L43.753,195.458L41.205,190.25z M69.862,248.739&#10;&#9;&#9;l17.96-52.483l27.617,56.382l-17.961,52.467L69.862,248.739z M123.586,358.388l17.963-52.464l27.634,56.377l-17.969,52.485&#10;&#9;&#9;L123.586,358.388z"/>
</g>
</svg>