<?xml version="1.0" encoding="iso-8859-1"?>
<!-- Uploaded to: SVG Repo, www.svgrepo.com, Generator: SVG Repo Mixer Tools -->
<svg fill="#000000" height="800px" width="800px" version="1.1" id="Layer_1" xmlns="http://www.w3.org/2000/svg" xmlns:xlink="http://www.w3.org/1999/xlink" 
	 viewBox="0 0 512 512" xml:space="preserve">
<g>
	<g>
		<path d="M393.83,212.68h-5.912v-0.469c0-15.066-2.799-29.747-8.318-43.633c-1.599-4.022-6.154-5.985-10.177-4.388
			c-4.023,1.599-5.986,6.155-4.388,10.177c4.785,12.035,7.21,24.767,7.21,37.843v0.469h-5.912c-6.716,0-13.298,0.572-19.711,1.653
			c-5.502-12.177-13.552-26.41-25.149-40.373c-13.779-25.908-12.12-40.465-10.361-46.201c4.761-0.596,9.681-1.051,14.759-1.363
			c9.188,6.028,17.471,13.58,24.49,22.504c2.678,3.402,7.605,3.989,11.005,1.314c3.402-2.676,3.99-7.603,1.316-11.005
			c-22.58-28.705-56.453-45.169-92.933-45.169h-27.498c-22.518,0-43.582,6.333-61.511,17.309c-0.545,0.257-1.054,0.581-1.523,0.952
			c-33.107,20.962-55.134,57.909-55.134,99.909v0.469h-5.912c-22.52,0-43.586,6.335-61.516,17.312
			c-0.541,0.255-1.045,0.576-1.511,0.945C22.032,251.897,0,288.845,0,330.848v24.255c0,34.659,28.197,62.856,62.855,62.856h138.126
			c23.656,0,44.294-13.142,55.018-32.504c10.725,19.362,31.363,32.504,55.019,32.504h91.616c4.329,0,7.837-3.509,7.837-7.837
			c0-4.328-3.508-7.837-7.837-7.837h-91.616c-26.016,0-47.181-21.165-47.181-47.182v-24.255c0-35.847,18.503-67.449,46.454-85.775
			c5.308,0.338,10.5,0.835,15.576,1.493c1.625,5.429,3.124,18.862-8.638,42.466c-3.504,3.963-6.65,7.901-9.464,11.73
			c-24.151,32.863-29.678,64.518-29.902,65.849c-0.716,4.263,2.157,8.294,6.42,9.017c0.443,0.075,0.883,0.111,1.318,0.111
			c3.749,0,7.063-2.702,7.719-6.52c0.028-0.167,1.739-9.754,7.26-23.475c21.834-22.062,61.643-55.823,79.242-55.823
			c17.582,0,57.419,33.763,79.274,55.826c5.492,13.65,7.213,23.205,7.259,23.468c0.647,3.824,3.962,6.531,7.718,6.531
			c0.43,0,0.867-0.036,1.306-0.109c4.268-0.717,7.148-4.757,6.431-9.026c-0.224-1.331-5.751-32.987-29.901-65.85
			c-1.924-2.616-4.011-5.285-6.253-7.977c-13.897-26.043-12.222-40.659-10.458-46.401c4.774-0.589,9.654-1.032,14.632-1.34
			c27.976,18.32,46.498,49.937,46.498,85.803v24.255c-0.001,26.017-21.166,47.182-47.182,47.182c-4.329,0-7.837,3.509-7.837,7.837
			c0,4.328,3.508,7.837,7.837,7.837c34.658,0,62.855-28.197,62.855-62.856v-24.255C512,265.689,458.99,212.68,393.83,212.68z
			 M366.333,228.352h27.498c9.961,0,19.593,1.435,28.705,4.097c-15.941,2.764-30.109,7.001-42.7,12.221
			c-12.511-5.187-26.58-9.4-42.397-12.165C346.607,229.808,356.303,228.352,366.333,228.352z M419.537,267.592
			c-6.115-4.732-12.871-9.277-20.321-13.489c6.237-1.977,12.703-3.648,19.393-5.013
			C418.026,253.983,418.091,260.117,419.537,267.592z M342.365,249.356c6.23,1.313,12.259,2.898,18.091,4.747
			c-6.852,3.873-13.125,8.027-18.844,12.352C342.828,259.627,342.885,253.951,342.365,249.356z M242.25,109.714h27.499
			c9.868,0,19.517,1.39,28.717,4.057c-15.883,2.721-30.06,6.894-42.711,12.106c-12.545-5.168-26.594-9.312-42.315-12.035
			C222.583,111.16,232.25,109.714,242.25,109.714z M295.416,148.736c-6.065-4.701-12.702-9.165-19.957-13.278
			c6.016-1.914,12.366-3.581,19.064-4.965C293.951,135.331,294.014,141.381,295.416,148.736z M218.289,130.767
			c6.219,1.329,12.138,2.902,17.762,4.691c-6.674,3.784-12.82,7.866-18.482,12.154C218.745,140.899,218.797,135.308,218.289,130.767
			z M206.17,179.389c12.257-13.555,28.398-26.531,49.585-36.306c22.176,10.233,38.826,23.971,51.278,38.212
			c-17.495-13.551-37.116-25.684-51.294-25.684c-13.856,0-32.905,11.589-50.087,24.764
			C205.824,180.047,206.002,179.715,206.17,179.389z M139.755,212.21L139.755,212.21c0-35.849,18.504-67.453,46.459-85.778
			c5.368,0.343,10.561,0.843,15.572,1.503c1.621,5.42,3.112,18.8-8.554,42.287c-13.308,15.109-22.318,30.784-28.314,44.034
			c-6.268-1.031-12.698-1.577-19.252-1.577h-5.912V212.21z M118.169,228.353h27.499c9.961,0,19.593,1.435,28.705,4.097
			c-15.941,2.764-30.109,7.001-42.701,12.221c-12.511-5.187-26.58-9.4-42.397-12.165
			C98.443,229.809,108.139,228.353,118.169,228.353z M171.374,267.592c-6.115-4.732-12.871-9.277-20.321-13.489
			c6.237-1.977,12.703-3.648,19.393-5.013C169.863,253.983,169.928,260.117,171.374,267.592z M94.202,249.356
			c6.23,1.313,12.259,2.898,18.091,4.747c-6.852,3.874-13.125,8.027-18.844,12.352C94.665,259.627,94.722,253.951,94.202,249.356z
			 M82.19,297.827c13.884-15.414,30.404-27.528,49.483-36.279c20,9.173,37.189,22.044,51.475,38.537
			c-17.545-13.613-37.26-25.836-51.49-25.836c-13.856,0-32.905,11.589-50.087,24.764C81.778,298.618,81.988,298.22,82.19,297.827z
			 M248.164,355.103c-0.001,26.017-21.167,47.182-47.182,47.182H62.855c-26.016,0-47.181-21.165-47.181-47.182v-24.255
			c0-35.847,18.503-67.449,46.454-85.775c5.308,0.338,10.5,0.835,15.576,1.493c1.625,5.429,3.124,18.862-8.638,42.466
			c-3.504,3.963-6.65,7.901-9.464,11.73c-24.151,32.863-29.678,64.518-29.902,65.849c-0.716,4.263,2.157,8.294,6.42,9.017
			c0.443,0.075,0.883,0.111,1.318,0.111c3.749,0,7.063-2.702,7.719-6.52c0.028-0.167,1.739-9.754,7.26-23.475
			c21.834-22.062,61.643-55.823,79.242-55.823c17.583,0,57.419,33.763,79.274,55.826c5.492,13.65,7.213,23.205,7.259,23.468
			c0.647,3.824,3.962,6.531,7.718,6.531c0.43,0,0.867-0.036,1.306-0.109c4.268-0.717,7.148-4.757,6.431-9.026
			c-0.224-1.331-5.751-32.987-29.901-65.85c-1.924-2.616-4.011-5.285-6.253-7.977c-13.897-26.043-12.222-40.659-10.458-46.401
			c4.774-0.589,9.654-1.032,14.632-1.34c27.976,18.32,46.498,49.937,46.498,85.803V355.103z M304.82,229.988
			c-0.544,0.256-1.051,0.579-1.52,0.95c-21.361,13.525-38.104,33.704-47.299,57.602c-12.436-32.322-38.683-57.84-71.477-69.291
			c22.516-21.401,55.606-47.964,71.216-47.964c15.625,0,48.835,26.67,71.374,48.092C319.273,222.144,311.807,225.711,304.82,229.988
			z M379.82,274.25c-13.856,0-32.905,11.588-50.087,24.764c0.208-0.396,0.418-0.794,0.62-1.186
			c13.884-15.414,30.404-27.528,49.483-36.279c20,9.173,37.189,22.044,51.475,38.537C413.766,286.473,394.051,274.25,379.82,274.25z
			"/>
	</g>
</g>
</svg>