<svg fill="#ffffff" height="800px" width="800px" version="1.1" id="Layer_1" xmlns="http://www.w3.org/2000/svg" xmlns:xlink="http://www.w3.org/1999/xlink" viewBox="0 0 512.001 512.001" xml:space="preserve" data-originalfillcolor="#000000" transform="rotate(0) scale(1, 1)">
<g>
	<g>
		<path d="M438.646,377.329c9.413-10.169,15.178-23.759,15.178-38.676c0-16.257-6.851-30.933-17.802-41.328&#10;&#9;&#9;&#9;c10.952-10.394,17.802-25.07,17.802-41.326c0-16.256-6.85-30.932-17.802-41.326c10.952-10.394,17.802-25.07,17.802-41.326&#10;&#9;&#9;&#9;c0-14.917-5.768-28.509-15.179-38.679c19.329-13.332,32.029-35.616,32.029-60.821C470.675,33.128,437.547,0,396.825,0&#10;&#9;&#9;&#9;c-25.203,0-47.487,12.699-60.819,32.028c-10.17-9.412-23.76-15.178-38.677-15.178c-16.256,0-30.932,6.85-41.327,17.804&#10;&#9;&#9;&#9;c-10.394-10.952-25.071-17.804-41.327-17.804c-14.917,0-28.508,5.768-38.679,15.179C162.665,12.699,140.38,0,115.176,0&#10;&#9;&#9;&#9;c-40.721,0-73.85,33.128-73.85,73.85c0,25.205,12.7,47.489,32.029,60.821c-9.413,10.17-15.179,23.761-15.179,38.679&#10;&#9;&#9;&#9;c0,16.255,6.85,30.931,17.802,41.326c-10.952,10.394-17.802,25.071-17.802,41.326c0,16.255,6.851,30.931,17.802,41.326&#10;&#9;&#9;&#9;c-10.951,10.394-17.802,25.072-17.802,41.328c0,14.917,5.767,28.507,15.178,38.676c-19.328,13.332-32.028,35.617-32.028,60.822&#10;&#9;&#9;&#9;c0,40.72,33.128,73.849,73.85,73.849c25.204,0,47.488-12.7,60.821-32.029c10.169,9.413,23.76,15.179,38.677,15.179&#10;&#9;&#9;&#9;c16.256,0,30.932-6.85,41.327-17.803c10.394,10.952,25.071,17.803,41.327,17.803c14.917,0,28.508-5.767,38.678-15.179&#10;&#9;&#9;&#9;c13.332,19.328,35.616,32.029,60.82,32.029c40.721,0,73.85-33.128,73.85-73.849C470.675,412.947,457.976,390.661,438.646,377.329z&#10;&#9;&#9;&#9; M396.825,480.648c-23.432,0-42.496-19.064-42.496-42.497c0-8.657-7.019-15.676-15.676-15.676&#10;&#9;&#9;&#9;c-8.657,0-15.676,7.019-15.676,15.676c0,14.143-11.507,25.648-25.651,25.648s-25.651-11.506-25.651-25.648&#10;&#9;&#9;&#9;c0-8.657-7.019-15.676-15.676-15.676c-8.657,0-15.676,7.019-15.676,15.676c0,14.143-11.507,25.648-25.651,25.648&#10;&#9;&#9;&#9;c-14.143,0-25.65-11.506-25.65-25.648c0-8.657-7.019-15.676-15.676-15.676c-8.657,0-15.676,7.019-15.676,15.676&#10;&#9;&#9;&#9;c0,23.433-19.064,42.497-42.497,42.497c-23.433,0-42.498-19.064-42.498-42.497c0-23.433,19.065-42.498,42.498-42.498&#10;&#9;&#9;&#9;c8.657,0,15.676-7.019,15.676-15.676c0-8.657-7.019-15.676-15.676-15.676c-14.143,0-25.649-11.506-25.649-25.649&#10;&#9;&#9;&#9;c0-14.145,11.506-25.653,25.649-25.653c8.657,0,15.676-7.019,15.676-15.676s-7.019-15.676-15.676-15.676&#10;&#9;&#9;&#9;c-14.143,0-25.649-11.506-25.649-25.649c0-14.144,11.506-25.651,25.649-25.651c8.657,0,15.676-7.019,15.676-15.676&#10;&#9;&#9;&#9;c0-8.657-7.019-15.676-15.676-15.676c-14.143,0-25.649-11.506-25.649-25.649c0-14.145,11.506-25.652,25.649-25.652&#10;&#9;&#9;&#9;c8.657,0,15.676-7.019,15.676-15.676c0-8.657-7.019-15.676-15.676-15.676c-23.433,0-42.498-19.064-42.498-42.496&#10;&#9;&#9;&#9;c0-23.433,19.065-42.498,42.498-42.498c23.433,0,42.497,19.065,42.497,42.498c0,8.657,7.019,15.676,15.676,15.676c0,0,0,0,0.001,0&#10;&#9;&#9;&#9;c8.657,0,15.676-7.019,15.676-15.676c0-14.143,11.507-25.649,25.651-25.649s25.651,11.506,25.651,25.649&#10;&#9;&#9;&#9;c0,8.657,7.019,15.676,15.676,15.676c8.657,0,15.676-7.019,15.676-15.676c0-14.143,11.507-25.649,25.651-25.649&#10;&#9;&#9;&#9;c14.143,0,25.649,11.506,25.649,25.649c0,8.657,7.019,15.676,15.676,15.676s15.676-7.019,15.676-15.676&#10;&#9;&#9;&#9;c0-23.433,19.064-42.498,42.496-42.498c23.433,0,42.498,19.065,42.498,42.498c0,23.432-19.065,42.496-42.498,42.496&#10;&#9;&#9;&#9;c-8.657,0-15.676,7.019-15.676,15.676s7.019,15.676,15.676,15.676c14.143,0,25.649,11.507,25.649,25.652&#10;&#9;&#9;&#9;c0,14.143-11.506,25.649-25.649,25.649c-8.657,0-15.676,7.019-15.676,15.676c0,8.657,7.019,15.676,15.676,15.676&#10;&#9;&#9;&#9;c14.143,0,25.649,11.507,25.649,25.651c0,14.143-11.506,25.649-25.649,25.649c-8.657,0-15.676,7.019-15.676,15.676&#10;&#9;&#9;&#9;c0,8.657,7.019,15.676,15.676,15.676c14.143,0,25.649,11.508,25.649,25.653c0,14.143-11.506,25.649-25.649,25.649&#10;&#9;&#9;&#9;c-8.657,0-15.676,7.019-15.676,15.676s7.019,15.676,15.676,15.676c23.433,0,42.498,19.065,42.498,42.498&#10;&#9;&#9;&#9;S420.259,480.648,396.825,480.648z"/>
	</g>
</g>
<g>
	<g>
		<circle cx="173.343" cy="173.343" r="19.504"/>
	</g>
</g>
<g>
	<g>
		<circle cx="173.343" cy="255.996" r="19.503"/>
	</g>
</g>
<g>
	<g>
		<circle cx="173.343" cy="338.649" r="19.503"/>
	</g>
</g>
<g>
	<g>
		<circle cx="256.007" cy="173.343" r="19.504"/>
	</g>
</g>
<g>
	<g>
		<circle cx="256.007" cy="255.996" r="19.503"/>
	</g>
</g>
<g>
	<g>
		<circle cx="256.007" cy="338.649" r="19.503"/>
	</g>
</g>
<g>
	<g>
		<circle cx="338.66" cy="173.343" r="19.504"/>
	</g>
</g>
<g>
	<g>
		<circle cx="338.66" cy="255.996" r="19.503"/>
	</g>
</g>
<g>
	<g>
		<circle cx="338.66" cy="338.649" r="19.503"/>
	</g>
</g>
</svg>