<?xml version="1.0" encoding="iso-8859-1"?>
<!-- Uploaded to: SVG Repo, www.svgrepo.com, Generator: SVG Repo Mixer Tools -->
<!DOCTYPE svg PUBLIC "-//W3C//DTD SVG 1.1//EN" "http://www.w3.org/Graphics/SVG/1.1/DTD/svg11.dtd">
<svg fill="#000000" height="800px" width="800px" version="1.1" id="Capa_1" xmlns="http://www.w3.org/2000/svg" xmlns:xlink="http://www.w3.org/1999/xlink" 
	 viewBox="0 0 358.578 358.578" xml:space="preserve">
<g>
	<path d="M335.33,232.718h-21.534l-21.117-111.634c-0.016-0.085-0.033-0.169-0.052-0.254c-4.568-20.291-17.766-31.466-37.161-31.466
		h-11.643c-5.282-3.178-11.159-5-17.13-5h-20.334c-5.58-3.172-12.081-5-19.02-5h-16.1c-6.939,0-13.44,1.828-19.021,5h-20.333
		c-5.971,0-11.848,1.822-17.13,5h-11.643c-19.396,0-32.593,11.175-37.161,31.466c-0.019,0.085-21.169,111.888-21.169,111.888H23.248
		C10.429,232.718,0,243.146,0,255.966c0,12.819,10.429,23.248,23.248,23.248H335.33c12.819,0,23.248-10.429,23.248-23.248
		C358.578,243.146,348.149,232.718,335.33,232.718z M277.965,124.003l20.565,108.715h-17.436c0,0-17.168-114.274-17.19-114.387
		c-0.976-4.941-2.805-9.6-5.268-13.797C268.998,105.56,275.189,111.806,277.965,124.003z M249.157,121.078l16.769,111.64H232.69
		l-7.852-117.562c-0.043-5.669-1.459-11.027-3.935-15.792h5.79C235.399,99.364,246.433,107.662,249.157,121.078z M187.339,94.364
		c12.406,0,22.5,9.446,22.5,21.057c0,0.167,7.818,117.297,7.818,117.297H140.92c0,0,7.819-117.13,7.819-117.297
		c0-11.61,10.094-21.057,22.5-21.057H187.339z M137.674,99.364c-2.475,4.765-3.891,10.123-3.934,15.792l-7.854,117.562H92.651
		l16.77-111.64c2.725-13.417,13.758-21.714,22.464-21.714H137.674z M80.613,124.003c2.776-12.197,8.967-18.443,19.328-19.469
		c-2.463,4.197-4.292,8.855-5.268,13.797c-0.022,0.112-17.191,114.387-17.191,114.387H60.048L80.613,124.003z M335.33,264.214
		H23.248c-4.548,0-8.248-3.7-8.248-8.248c0-4.548,3.7-8.248,8.248-8.248H335.33c4.548,0,8.248,3.7,8.248,8.248
		C343.578,260.514,339.878,264.214,335.33,264.214z"/>
</g>
</svg>