<?xml version="1.0" encoding="iso-8859-1"?>
<!-- Uploaded to: SVG Repo, www.svgrepo.com, Generator: SVG Repo Mixer Tools -->
<svg fill="#000000" height="800px" width="800px" version="1.1" id="Layer_1" xmlns="http://www.w3.org/2000/svg" xmlns:xlink="http://www.w3.org/1999/xlink" 
	 viewBox="0 0 512 512" xml:space="preserve">
<g>
	<g>
		<path d="M413.329,194.588c0-39.506-28.161-72.555-65.462-80.137c0.386-3.214,0.607-6.478,0.607-9.794
			c0-45.091-36.683-81.775-81.775-81.775c-39.71,0-72.884,28.455-80.241,66.042L129.468,7.239
			c-5.345-7.663-15.894-9.541-23.557-4.195c-7.663,5.346-9.541,15.894-4.195,23.557l66.093,94.733
			c-26.929,13.395-45.486,41.192-45.486,73.253c0,6.938,0.875,13.674,2.51,20.111c-1.921,2.744-3.056,6.077-3.056,9.681v36.452
			c0,34.05,12.236,67.273,34.454,93.549c18.649,22.058,43.287,38.117,70.443,46.14v54.204l-31.034,27.745
			c-5.23,4.676-7.03,12.095-4.529,18.648c2.502,6.554,8.79,10.883,15.806,10.883h121.816c7.061,0,13.378-4.384,15.85-10.998
			c2.47-6.614,0.574-14.068-4.758-18.695l-31.941-27.73v-53.986c61.559-17.785,104.897-74.461,104.897-139.758v-36.452
			c0-3.092-0.843-5.98-2.291-8.473C412.331,209.105,413.329,201.962,413.329,194.588z M266.699,56.72
			c26.433,0,47.937,21.505,47.937,47.937c0,3.493-0.386,6.897-1.099,10.181c-18.316,4.136-34.318,14.427-45.71,28.59
			c-11.883-14.772-28.776-25.34-48.083-29.096c-0.643-3.125-0.981-6.36-0.981-9.674C218.762,78.224,240.266,56.72,266.699,56.72z
			 M204.099,146.651c22.441,0,41.323,15.503,46.516,36.361c-0.539,3.784-0.835,7.645-0.835,11.576c0,3.931,0.295,7.792,0.835,11.576
			c-0.108,0.435-0.228,0.866-0.349,1.297h-92.334c-1.145-4.1-1.77-8.413-1.77-12.873
			C156.162,168.155,177.666,146.651,204.099,146.651z M378.943,260.832c0.001,53.787-38.3,99.95-91.07,109.764
			c-8.014,1.49-13.826,8.483-13.826,16.633v75.063c0,4.902,2.126,9.563,5.827,12.776l3.564,3.095h-32.212l3.643-3.257
			c3.59-3.21,5.642-7.797,5.642-12.614v-75.063c0-8.129-5.781-15.11-13.767-16.623c-51.953-9.847-91.13-57.04-91.13-109.774v-19.533
			h223.329V260.832z M377.72,207.461h-92.333c-1.145-4.1-1.77-8.413-1.77-12.873c0-26.433,21.504-47.937,47.937-47.937
			c26.433,0,47.937,21.504,47.937,47.937C379.491,199.048,378.865,203.361,377.72,207.461z"/>
	</g>
</g>
</svg>