<?xml version="1.0" ?><!-- Uploaded to: SVG Repo, www.svgrepo.com, Generator: SVG Repo Mixer Tools -->
<svg fill="#000000" width="800px" height="800px" viewBox="0 0 64 64" data-name="Layer 1" id="Layer_1" xmlns="http://www.w3.org/2000/svg"><path d="M16,33a1,1,0,0,0,0,2A1,1,0,0,0,16,33Z"/><path d="M20,33a1,1,0,0,0,0,2A1,1,0,0,0,20,33Z"/><path d="M24,33a1,1,0,0,0,0,2A1,1,0,0,0,24,33Z"/><path d="M60,29H57.7085A6.6854,6.6854,0,0,0,53,30.9368V17.05A4.0544,4.0544,0,0,0,48.95,13C42.0425,13,21.633,13,15.05,13A4.0544,4.0544,0,0,0,11,17.05V37H4a1,1,0,0,0-1,1,9.01,9.01,0,0,0,8,8.941V48a3.0033,3.0033,0,0,0,3,3H50a3.0033,3.0033,0,0,0,3-3V46.941A9.01,9.01,0,0,0,61,38a1,1,0,0,0-1-1h-.9368A6.6843,6.6843,0,0,0,61,32.292V30A1,1,0,0,0,60,29Zm-9,8H49.7085A4.7138,4.7138,0,0,1,45,32.292V31h1.2915A4.7138,4.7138,0,0,1,51,35.708Zm0-19.95v13.887A6.6854,6.6854,0,0,0,46.2915,29H44a1,1,0,0,0-1,1v2.292A6.6843,6.6843,0,0,0,44.9368,37H29V17.05A4.0053,4.0053,0,0,0,28.4232,15H48.95A2.0527,2.0527,0,0,1,51,17.05Zm-38,0A2.0527,2.0527,0,0,1,15.05,15H24.95A2.0527,2.0527,0,0,1,27,17.05V37H13ZM51,48a1.0009,1.0009,0,0,1-1,1H14a1.0009,1.0009,0,0,1-1-1V47H51Zm1-3H12a7.0109,7.0109,0,0,1-6.9287-6H58.9287A7.0109,7.0109,0,0,1,52,45Zm1-8V35.708A4.7138,4.7138,0,0,1,57.7085,31H59v1.292A4.7138,4.7138,0,0,1,54.2915,37Z"/></svg>