<svg version="1.0" xmlns="http://www.w3.org/2000/svg" width="200.000000ptpx" height="200.000000ptpx" viewBox="0 0 200.000000 200.000000" preserveAspectRatio="xMidYMid meet" transform="rotate(0) scale(1, 1)">

<g transform="translate(0.000000,200.000000) scale(0.100000,-0.100000)" fill="#ffffff" stroke="none">
<path d="M1454 1231 c-48 -22 -102 -74 -120 -116 -10 -24 -22 -33 -58 -43 -26&#10;-7 -63 -28 -86 -48 -73 -66 -253 -96 -440 -74 -205 24 -341 14 -435 -32 -56&#10;-28 -182 -154 -212 -213 -70 -136 10 -326 156 -369 37 -10 185 -13 732 -12&#10;l685 2 58 29 c164 83 236 285 158 447 -50 104 -103 149 -241 202 -52 20 -122&#10;40 -155 43 -68 7 -126 28 -126 45 0 24 51 77 95 98 41 20 56 42 37 54 -4 2&#10;-26 -3 -48 -13z m142 -295 c89 -42 109 -99 52 -153 -91 -86 -160 -94 -693 -85&#10;l-190 4 -164 -41 c-169 -42 -236 -49 -274 -30 -97 50 -97 137 -2 198 65 41&#10;144 55 277 47 62 -3 165 -9 229 -12 87 -5 134 -3 196 10 103 21 103 21 103 -9&#10;0 -13 7 -43 17 -66 20 -50 56 -68 152 -76 124 -10 200 30 221 116 8 34 8 60 2&#10;85 -13 45 0 47 74 12z m216 -155 c49 -94 35 -207 -35 -287 -69 -78 -101 -89&#10;-257 -88 -74 0 -322 0 -550 1 -694 1 -676 0 -707 16 -37 20 -79 65 -92 100&#10;-12 32 -13 102 -2 131 6 17 10 15 28 -17 12 -20 41 -48 64 -64 69 -46 146 -44&#10;358 7 l174 42 311 -7 c271 -6 321 -5 390 10 155 32 266 114 266 195 0 35 23&#10;18 52 -39z"/>
</g>
</svg>