<?xml version="1.0" encoding="iso-8859-1"?>
<!-- Uploaded to: SVG Repo, www.svgrepo.com, Generator: SVG Repo Mixer Tools -->
<svg fill="#000000" height="800px" width="800px" version="1.1" id="Layer_1" xmlns="http://www.w3.org/2000/svg" xmlns:xlink="http://www.w3.org/1999/xlink" 
	 viewBox="0 0 512 512" xml:space="preserve">
<g>
	<g>
		<path d="M487.489,408.511h-36.262l-31.874-286.859c-0.46-4.138-3.957-7.268-8.12-7.268H307.667
			c3.604-7.595,5.524-15.948,5.524-24.511c0-28.947-21.622-52.923-49.559-56.668c-1.626-11.627-6.945-22.366-15.392-30.813
			c-3.191-3.19-8.364-3.19-11.554,0c-3.191,3.192-3.191,8.364,0,11.555c5.391,5.391,8.965,12.115,10.414,19.429
			c-27.324,4.289-48.292,27.988-48.292,56.497c0,4.513,3.658,8.17,8.17,8.17c4.512,0,8.17-3.657,8.17-8.17
			c0-22.526,18.325-40.851,40.851-40.851s40.851,18.325,40.851,40.851c0,8.889-2.882,17.466-8.173,24.511H100.766
			c-4.164,0-7.66,3.13-8.12,7.268L60.772,408.511H24.511C10.995,408.511,0,419.507,0,433.021c0,13.515,10.995,24.511,24.511,24.511
			h10.451l5.959,17.878C47.761,495.928,70.06,512,91.688,512h328.624c21.628,0,43.927-16.072,50.766-36.591l5.959-17.878h10.451
			c13.516,0,24.511-10.996,24.511-24.511C512,419.507,501.005,408.511,487.489,408.511z M108.079,130.723h184.333
			c0.04,0,0.08,0.005,0.12,0.005c0.035,0,0.07-0.004,0.103-0.005h111.286l7.972,71.748c-10.578,2.083-17.253,7.326-22.824,11.714
			c-6.481,5.104-11.599,9.134-22.581,9.134c-10.98,0-16.092-4.033-22.566-9.139c-7.146-5.636-16.039-12.649-32.685-12.649
			c-16.645,0-25.537,7.013-32.682,12.649c-6.472,5.106-11.585,9.139-22.562,9.139c-10.977,0-16.09-4.033-22.563-9.139
			c-7.145-5.635-16.038-12.649-32.683-12.649s-25.538,7.013-32.683,12.649c-3.19,2.516-6.203,4.891-9.701,6.539
			c-2.862,1.349-4.689,4.228-4.689,7.391v117.761c0,4.506-3.665,8.17-8.17,8.17c-4.506,0-8.17-3.665-8.17-8.17V228.113
			c0-3.165-1.828-6.046-4.693-7.394c-3.501-1.647-6.518-4.021-9.711-6.536c-5.571-4.388-12.247-9.63-22.823-11.713L108.079,130.723z
			 M98.294,218.787c5.914,1.461,9.86,4.559,14.527,8.233c2.438,1.921,5.097,4.014,8.172,5.924v112.928
			c0,13.515,10.995,24.511,24.511,24.511s24.511-10.996,24.511-24.511V232.939c3.074-1.912,5.731-4.008,8.168-5.928
			c6.473-5.106,11.586-9.139,22.564-9.139c10.978,0,16.09,4.033,22.563,9.139c7.145,5.634,16.036,12.649,32.683,12.649
			c16.645,0,25.537-7.013,32.681-12.649c6.473-5.106,11.585-9.139,22.562-9.139c10.979,0,16.092,4.033,22.566,9.139
			c7.146,5.635,16.039,12.649,32.685,12.649c16.644,0,25.541-7.008,32.691-12.638c4.667-3.676,8.613-6.775,14.528-8.234
			l21.082,189.723H77.213L98.294,218.787z M487.489,441.191h-16.154c-0.027-0.001-0.053,0-0.081,0H106.213
			c-4.512,0-8.17,3.657-8.17,8.17s3.658,8.17,8.17,8.17h353.6l-4.237,12.71c-4.593,13.777-20.741,25.418-35.265,25.418H91.688
			c-14.523,0-30.672-11.641-35.265-25.418l-4.237-12.71h21.345c4.512,0,8.17-3.657,8.17-8.17s-3.658-8.17-8.17-8.17H24.511
			c-4.506,0-8.17-3.665-8.17-8.17c0-4.506,3.665-8.17,8.17-8.17h462.979c4.506,0,8.17,3.665,8.17,8.17
			C495.66,437.527,491.995,441.191,487.489,441.191z"/>
	</g>
</g>
<g>
	<g>
		<circle cx="370.568" cy="343.149" r="8.17"/>
	</g>
</g>
<g>
	<g>
		<circle cx="337.887" cy="375.83" r="8.17"/>
	</g>
</g>
</svg>