<svg fill="#ffffff" version="1.1" id="Layer_1" xmlns="http://www.w3.org/2000/svg" xmlns:xlink="http://www.w3.org/1999/xlink" width="800px" height="800px" viewBox="0 0 512 512" enable-background="new 0 0 512 512" xml:space="preserve" data-originalfillcolor="#000000" transform="rotate(0) scale(1, 1)">
<g>
	<path d="M339,72.042c-49.802,0-94.557,22.013-125.062,56.814c11.389,3.541,22.303,8.17,32.623,13.761&#10;&#9;&#9;c23.966-23.15,56.565-37.416,92.439-37.416c73.417,0,133.154,59.728,133.154,133.154c0,73.426-59.736,133.154-133.154,133.154&#10;&#9;&#9;c-3.144,0-6.26-0.117-9.35-0.333c-4.424,11.076-9.901,21.621-16.307,31.512c8.365,1.301,16.932,1.98,25.656,1.98&#10;&#9;&#9;c91.705,0,166.313-74.608,166.313-166.313C505.313,146.65,430.705,72.042,339,72.042z"/>
	<path d="M366.5,225.111c-13.502,0-24.44,10.944-24.44,24.448c0,13.502,10.938,24.44,24.44,24.44c13.512,0,24.45-10.938,24.45-24.44&#10;&#9;&#9;C390.949,236.056,380.012,225.111,366.5,225.111z"/>
	<path d="M361.918,147.47c0-16.587-13.454-30.05-30.042-30.05c-16.596,0-30.05,13.463-30.05,30.05&#10;&#9;&#9;c0,16.596,13.454,30.05,30.05,30.05C348.464,177.52,361.918,164.065,361.918,147.47z"/>
	<path d="M356.316,327.989c0,9.568,7.756,17.315,17.315,17.315c9.57,0,17.317-7.748,17.317-17.315&#10;&#9;&#9;c0-9.57-7.748-17.317-17.317-17.317C364.072,310.672,356.316,318.419,356.316,327.989z"/>
	<path d="M454.611,210.854c0-12.662-10.258-22.917-22.918-22.917c-12.662,0-22.919,10.256-22.919,22.917&#10;&#9;&#9;c0,12.654,10.258,22.918,22.919,22.918C444.354,233.772,454.611,223.508,454.611,210.854z"/>
	<path d="M159.734,153.814C77.039,153.814,10,220.845,10,303.54s67.039,149.733,149.734,149.733&#10;&#9;&#9;c82.695,0,149.726-67.038,149.726-149.733S242.429,153.814,159.734,153.814z M47.685,256.684c0-17.43,14.143-31.572,31.58-31.572&#10;&#9;&#9;c17.438,0,31.573,14.143,31.573,31.572c0,17.437-14.135,31.581-31.573,31.581C61.827,288.265,47.685,274.121,47.685,256.684z&#10;&#9;&#9; M97.601,378.917c-12.945,0-23.428-10.492-23.428-23.427c0-12.937,10.483-23.428,23.428-23.428&#10;&#9;&#9;c12.937,0,23.428,10.491,23.428,23.428C121.029,368.425,110.538,378.917,97.601,378.917z M152.602,303.541&#10;&#9;&#9;c0-13.504,10.945-24.442,24.449-24.442c13.502,0,24.44,10.938,24.44,24.442c0,13.502-10.938,24.448-24.44,24.448&#10;&#9;&#9;C163.546,327.989,152.602,317.043,152.602,303.541z M194.366,410.497c-9.568,0-17.315-7.756-17.315-17.316&#10;&#9;&#9;c0-9.569,7.748-17.315,17.315-17.315c9.562,0,17.317,7.746,17.317,17.315C211.683,402.741,203.927,410.497,194.366,410.497z&#10;&#9;&#9; M201.49,245.99c-16.588,0-30.042-13.456-30.042-30.044c0-16.595,13.454-30.05,30.042-30.05c16.596,0,30.05,13.456,30.05,30.05&#10;&#9;&#9;C231.541,232.534,218.086,245.99,201.49,245.99z M252.419,338.172c-9.561,0-17.309-7.748-17.309-17.315&#10;&#9;&#9;c0-9.562,7.748-17.315,17.309-17.315c9.568,0,17.316,7.754,17.316,17.315C269.735,330.424,261.987,338.172,252.419,338.172z"/>
</g>
</svg>